<svg width="365" height="170" viewBox="0 0 365 170" fill="none" xmlns="http://www.w3.org/2000/svg">
<circle cx="180.727" cy="85" r="85" fill="#EEE8FF"/>
<path d="M258.378 46.762C260.808 47.2967 263.34 47.0028 265.665 46.118C275.406 42.4169 309.154 31.5075 306.883 59.0708C306.316 64.555 290.208 97.0714 320.585 103.897C322.813 104.408 325.11 104.536 327.381 104.275C335.61 103.303 351.003 99.3569 358.291 92.0651C359.468 90.8876 360.504 89.4693 360.744 87.8216C360.809 87.3749 360.789 87.0138 360.711 86.7221C360.23 84.9335 357.645 86.0377 356.018 86.9213C348.329 91.0976 324.3 102.646 312.517 91.0172C310.944 89.4643 309.743 87.0581 309.197 84.9187C308.249 81.2104 309.23 75.9989 310.827 71.3576C312.991 65.0769 323.621 36.6984 291.443 33.338C284.041 32.6337 273.421 32.5544 260.792 40.0507C253.425 44.4239 255.429 46.1133 258.378 46.762Z" fill="#D7CDF4"/>
<path d="M263.925 35.9523L255.388 40.5668C252.441 42.1592 251.347 45.8316 252.945 48.7688L253.558 49.8966C255.155 52.8338 258.84 53.9243 261.786 52.3319L270.325 47.7187C273.272 46.1262 274.366 42.4539 272.768 39.5153L272.155 38.3889C270.557 35.4503 266.873 34.3597 263.925 35.9523Z" fill="#B89AF0"/>
<path d="M209.991 53.3686L181.835 68.5841C180.36 69.3798 179.813 71.216 180.612 72.6845L180.773 72.9806C181.571 74.4493 183.413 74.9946 184.888 74.1989L213.045 58.9834C214.519 58.1862 215.066 56.3501 214.267 54.8816L214.106 54.5854C213.308 53.1168 211.465 52.5715 209.991 53.3686Z" fill="#C09EFF"/>
<path d="M221.374 74.2983L193.217 89.5126C191.743 90.3095 191.196 92.1456 191.996 93.6141L192.155 93.9105C192.955 95.379 194.797 95.9242 196.27 95.1273L224.428 79.9131C225.901 79.1161 226.448 77.28 225.65 75.8113L225.489 75.5152C224.691 74.0465 222.848 73.5014 221.374 74.2983Z" fill="#C09EFF"/>
<path d="M243.602 33.3303L220.782 45.661C217.834 47.2536 216.74 50.9274 218.337 53.8645L229.624 74.6155C231.222 77.5527 234.906 78.6432 237.853 77.0508L260.675 64.7199C263.621 63.1274 264.715 59.4551 263.118 56.5165L251.832 35.7654C250.235 32.8282 246.55 31.7376 243.602 33.3303Z" fill="#CCB4FF"/>
<path d="M222.816 42.0763L199.994 54.4087C197.048 56.0011 195.954 59.6734 197.551 62.612L211.016 87.3687C212.613 90.3059 216.298 91.3964 219.244 89.804L242.066 77.473C245.013 75.8806 246.107 72.2083 244.509 69.2697L231.045 44.5131C229.447 41.5744 225.763 40.4839 222.816 42.0763Z" fill="#DFCDFF"/>
<path d="M225.843 36.2512L225.664 36.3474C223.699 37.409 222.97 39.8583 224.035 41.8164L242.898 76.4989C243.963 78.4571 246.418 79.1846 248.383 78.123L248.562 78.0254C250.528 76.9636 251.256 74.516 250.191 72.5578L231.33 37.8751C230.265 35.917 227.807 35.1896 225.843 36.2512Z" fill="#5C19DD"/>
<path d="M3.67535 79.4221C5.20712 82.8481 10.3325 81.5352 13.8793 80.3088C26.0414 76.1038 54.3805 68.9256 52.2829 94.2636C51.7528 99.3723 37.7511 127.249 60.3589 136.54C65.2134 138.535 70.5554 138.974 75.7535 138.221C85.0733 136.871 99.6092 133.019 105.311 125.353C112.952 115.077 103.825 120.717 103.825 120.717C103.825 120.717 77.6431 135.98 62.0893 128.896C56.7784 126.477 53.7297 120.784 54.2709 114.985C54.5591 112.102 55.2145 109.267 56.2219 106.549C58.5195 100.313 69.0292 71.8799 36.8566 68.5327C29.455 67.8315 18.8365 67.7566 6.20528 75.2593C3.63847 76.9481 3.18957 78.3356 3.67535 79.4221Z" fill="#D7CDF4"/>
<path d="M110.206 112.753L101.669 117.367C98.7212 118.96 97.6272 122.632 99.2251 125.57L99.8381 126.697C101.436 129.635 105.12 130.726 108.067 129.132L116.605 124.519C119.553 122.926 120.647 119.254 119.049 116.316L118.436 115.189C116.838 112.25 113.153 111.16 110.206 112.753Z" fill="#B89AF0"/>
<path d="M123.358 95.8619L110.705 102.7C107.757 104.292 106.663 107.965 108.261 110.903L117.099 127.152C118.697 130.091 122.381 131.182 125.328 129.589L137.982 122.751C140.929 121.159 142.023 117.486 140.425 114.548L131.588 98.2985C129.99 95.3599 126.305 94.2694 123.358 95.8619Z" fill="#CCB4FF"/>
<path d="M143.736 79.5703L124.866 89.7675C121.919 91.36 120.825 95.0323 122.423 97.9709L135.887 122.728C137.485 125.666 141.169 126.757 144.116 125.164L162.986 114.967C165.934 113.374 167.028 109.702 165.43 106.763L151.966 82.0068C150.368 79.0682 146.684 77.9777 143.736 79.5703Z" fill="#DFCDFF"/>
<path d="M147.197 73.5744L147.018 73.6706C145.052 74.7324 144.324 77.1815 145.389 79.1396L164.25 113.822C165.315 115.781 167.772 116.508 169.737 115.446L169.916 115.349C171.88 114.287 172.61 111.839 171.545 109.88L152.682 75.1985C151.617 73.2404 149.161 72.5128 147.197 73.5744Z" fill="#5C19DD"/>
</svg>
